<svg xmlns="http://www.w3.org/2000/svg" viewBox="0 0 160 180" role="img" aria-label="메가MGC커피 한 잔의 왕관 휘장 · 예시"><path d="M27 35L80 18L133 35V88Q128 127 80 151Q32 127 27 88Z" fill="#080e25" transform="translate(3 5)"/><path d="M27 35L80 18L133 35V88Q128 127 80 151Q32 127 27 88Z" fill="#eebd45" stroke="#ffdf96" stroke-width="2.6"/><path d="M34 40L80 25L126 40V87Q121 121 80 143Q39 121 34 87Z" fill="#665a3e" stroke="#353346" stroke-width="2"/><path d="M28 100Q15 71 24 45M132 100Q145 71 136 45" fill="none" stroke="#efd188" stroke-width="2"/><g fill="#efd188" stroke="#353346" stroke-width=".7"><path d="M28 92q-15 -5 -9 -16q15 4 9 16M132 92q15 -5 9 -16q-15 4 -9 16"/><path d="M26 79q-15 -5 -9 -16q15 4 9 16M134 79q15 -5 9 -16q-15 4 -9 16"/><path d="M24 66q-15 -5 -9 -16q15 4 9 16M136 66q15 -5 9 -16q-15 4 -9 16"/><path d="M22 53q-15 -5 -9 -16q15 4 9 16M138 53q15 -5 9 -16q-15 4 -9 16"/></g><circle cx="80" cy="76" r="38" fill="#eebd45" fill-opacity=".22" stroke="#fff0c3" stroke-opacity=".25"/><path d="M63 27L58 12L73 19L80 6L87 19L102 12L97 27Z" fill="#ffda80" stroke="#353346" stroke-width="2.5"/><g fill="#fff0ba"><circle cx="58" cy="11" r="3"/><circle cx="80" cy="5" r="3"/><circle cx="102" cy="11" r="3"/></g><g stroke="#353346" stroke-width="2.4" stroke-linejoin="round" stroke-linecap="round"><path d="M57 53H102L97 101H62Z" fill="#ffe063"/><path d="M55 53H104V62H55Z" fill="#25304b"/><path d="M66 66H94V89H66Z" fill="#fff4d7"/><path d="M75 78H86M81 72V84" stroke="#b38328"/><path d="M66 101H95" stroke-width="4"/><path d="M64 43L68 36L77 44L85 33L94 43" fill="none" stroke="#efb948" stroke-width="4"/></g><path d="M14 116L34 113V133L14 139L19 127ZM146 116L126 113V133L146 139L141 127Z" fill="#eebd45" stroke="#353346" stroke-width="2"/><path d="M26 111H134V133H26Z" fill="#ffdf96" stroke="#353346" stroke-width="2.5"/><text x="80" y="125" text-anchor="middle" font-family="Arial,sans-serif" font-size="8" font-weight="bold" letter-spacing=".65" fill="#353346">SWEET CROWN</text><path d="M80 145L84 152L80 159L76 152Z" fill="#ffdf96"/><text x="80" y="173" text-anchor="middle" font-family="Arial,sans-serif" font-size="8" font-weight="bold" letter-spacing="1.5" fill="#efd188">SWEET / 001</text></svg>